<mxfile host="app.diagrams.net" modified="2024-07-18T13:00:58.528Z" agent="Mozilla/5.0 (Windows NT 10.0; Win64; x64) AppleWebKit/537.36 (KHTML, like Gecko) Chrome/126.0.0.0 Safari/537.36" etag="eSLjEKK0R_1zrjiL05cS" version="24.7.1" type="device">
  <diagram id="prtHgNgQTEPvFCAcTncT" name="Page-1">
    <mxGraphModel dx="1954" dy="1096" grid="1" gridSize="10" guides="1" tooltips="1" connect="1" arrows="1" fold="1" page="1" pageScale="1" pageWidth="1600" pageHeight="900" math="0" shadow="0">
      <root>
        <mxCell id="0" />
        <mxCell id="1" parent="0" />
        <mxCell id="FK0lxCe26ej1Pc23t5L4-82" value="" style="rounded=0;whiteSpace=wrap;html=1;" vertex="1" parent="1">
          <mxGeometry x="95" y="480" width="2035" height="230" as="geometry" />
        </mxCell>
        <mxCell id="FK0lxCe26ej1Pc23t5L4-7" value="" style="rounded=0;whiteSpace=wrap;html=1;labelBackgroundColor=none;fillColor=#CCCCCC;" vertex="1" parent="1">
          <mxGeometry x="55" y="480" width="40" height="380" as="geometry" />
        </mxCell>
        <mxCell id="FK0lxCe26ej1Pc23t5L4-6" value="" style="rounded=0;whiteSpace=wrap;html=1;labelBackgroundColor=none;fillColor=#CCCCCC;" vertex="1" parent="1">
          <mxGeometry x="55" y="20" width="40" height="460" as="geometry" />
        </mxCell>
        <mxCell id="FK0lxCe26ej1Pc23t5L4-1" value="" style="rounded=0;whiteSpace=wrap;html=1;" vertex="1" parent="1">
          <mxGeometry x="95" y="270" width="2035" height="210" as="geometry" />
        </mxCell>
        <mxCell id="FK0lxCe26ej1Pc23t5L4-110" value="" style="rounded=0;whiteSpace=wrap;html=1;" vertex="1" parent="1">
          <mxGeometry x="1160" y="270" width="970" height="210" as="geometry" />
        </mxCell>
        <mxCell id="FK0lxCe26ej1Pc23t5L4-2" value="" style="rounded=0;whiteSpace=wrap;html=1;" vertex="1" parent="1">
          <mxGeometry x="95" y="710" width="2035" height="150" as="geometry" />
        </mxCell>
        <mxCell id="FK0lxCe26ej1Pc23t5L4-3" value="Master" style="text;html=1;align=center;verticalAlign=middle;whiteSpace=wrap;rounded=0;rotation=-90;fontSize=30;" vertex="1" parent="1">
          <mxGeometry x="25" y="235" width="100" height="30" as="geometry" />
        </mxCell>
        <mxCell id="FK0lxCe26ej1Pc23t5L4-4" value="Slave" style="text;html=1;align=center;verticalAlign=middle;whiteSpace=wrap;rounded=0;rotation=-90;fontSize=30;" vertex="1" parent="1">
          <mxGeometry x="25" y="615" width="100" height="30" as="geometry" />
        </mxCell>
        <mxCell id="FK0lxCe26ej1Pc23t5L4-18" value="connectToMaster" style="rounded=1;whiteSpace=wrap;html=1;absoluteArcSize=1;arcSize=14;strokeWidth=2;fontSize=20;" vertex="1" parent="1">
          <mxGeometry x="540" y="555" width="170" height="80" as="geometry" />
        </mxCell>
        <mxCell id="FK0lxCe26ej1Pc23t5L4-20" value="" style="rounded=0;whiteSpace=wrap;html=1;" vertex="1" parent="1">
          <mxGeometry x="95" y="20" width="2035" height="250" as="geometry" />
        </mxCell>
        <mxCell id="FK0lxCe26ej1Pc23t5L4-17" value="OpenSlavePort" style="rounded=1;whiteSpace=wrap;html=1;absoluteArcSize=1;arcSize=14;strokeWidth=2;fontSize=20;" vertex="1" parent="1">
          <mxGeometry x="315" y="92.5" width="170" height="100" as="geometry" />
        </mxCell>
        <mxCell id="FK0lxCe26ej1Pc23t5L4-22" value="&lt;font style=&quot;font-size: 15px;&quot;&gt;acceptance thread&lt;/font&gt;" style="strokeWidth=2;html=1;shape=mxgraph.flowchart.start_1;whiteSpace=wrap;" vertex="1" parent="1">
          <mxGeometry x="335" y="337.5" width="130" height="80" as="geometry" />
        </mxCell>
        <mxCell id="FK0lxCe26ej1Pc23t5L4-23" value="" style="endArrow=classic;html=1;rounded=0;exitX=0.5;exitY=0;exitDx=0;exitDy=0;entryX=0.5;entryY=1;entryDx=0;entryDy=0;" edge="1" parent="1" source="FK0lxCe26ej1Pc23t5L4-18" target="FK0lxCe26ej1Pc23t5L4-26">
          <mxGeometry relative="1" as="geometry">
            <mxPoint x="1025" y="247.5" as="sourcePoint" />
            <mxPoint x="1125" y="247.5" as="targetPoint" />
          </mxGeometry>
        </mxCell>
        <mxCell id="FK0lxCe26ej1Pc23t5L4-24" value="" style="shape=message;html=1;outlineConnect=0;" vertex="1" parent="FK0lxCe26ej1Pc23t5L4-23">
          <mxGeometry width="20" height="14" relative="1" as="geometry">
            <mxPoint x="-10" y="20" as="offset" />
          </mxGeometry>
        </mxCell>
        <mxCell id="FK0lxCe26ej1Pc23t5L4-26" value="&lt;span style=&quot;font-size: 15px;&quot;&gt;Accept_slaves&lt;/span&gt;" style="rounded=1;whiteSpace=wrap;html=1;absoluteArcSize=1;arcSize=14;strokeWidth=2;" vertex="1" parent="1">
          <mxGeometry x="545" y="347.5" width="160" height="60" as="geometry" />
        </mxCell>
        <mxCell id="FK0lxCe26ej1Pc23t5L4-27" value="" style="endArrow=classic;html=1;rounded=0;exitX=1;exitY=0.5;exitDx=0;exitDy=0;exitPerimeter=0;" edge="1" parent="1" source="FK0lxCe26ej1Pc23t5L4-22" target="FK0lxCe26ej1Pc23t5L4-26">
          <mxGeometry width="50" height="50" relative="1" as="geometry">
            <mxPoint x="1255" y="337.5" as="sourcePoint" />
            <mxPoint x="525" y="377.5" as="targetPoint" />
          </mxGeometry>
        </mxCell>
        <mxCell id="FK0lxCe26ej1Pc23t5L4-28" value="" style="endArrow=classic;html=1;rounded=0;exitX=1;exitY=0.25;exitDx=0;exitDy=0;entryX=0;entryY=0.25;entryDx=0;entryDy=0;" edge="1" parent="1" source="FK0lxCe26ej1Pc23t5L4-26" target="FK0lxCe26ej1Pc23t5L4-26">
          <mxGeometry width="50" height="50" relative="1" as="geometry">
            <mxPoint x="865" y="387.5" as="sourcePoint" />
            <mxPoint x="915" y="337.5" as="targetPoint" />
            <Array as="points">
              <mxPoint x="735" y="362.5" />
              <mxPoint x="735" y="317.5" />
              <mxPoint x="515" y="317.5" />
              <mxPoint x="515" y="362.5" />
            </Array>
          </mxGeometry>
        </mxCell>
        <mxCell id="FK0lxCe26ej1Pc23t5L4-29" value="" style="shape=flexArrow;endArrow=classic;html=1;rounded=0;exitX=0.5;exitY=1;exitDx=0;exitDy=0;entryX=0.5;entryY=0;entryDx=0;entryDy=0;entryPerimeter=0;width=7.586206896551725;endSize=3.8206896551724143;endWidth=10.439952437574318;" edge="1" parent="1" source="FK0lxCe26ej1Pc23t5L4-17" target="FK0lxCe26ej1Pc23t5L4-22">
          <mxGeometry width="50" height="50" relative="1" as="geometry">
            <mxPoint x="885" y="387.5" as="sourcePoint" />
            <mxPoint x="935" y="337.5" as="targetPoint" />
          </mxGeometry>
        </mxCell>
        <mxCell id="FK0lxCe26ej1Pc23t5L4-31" value="if accept" style="strokeWidth=2;html=1;shape=mxgraph.flowchart.decision;whiteSpace=wrap;" vertex="1" parent="1">
          <mxGeometry x="805" y="327.5" width="100" height="100" as="geometry" />
        </mxCell>
        <mxCell id="FK0lxCe26ej1Pc23t5L4-32" value="" style="endArrow=classic;html=1;rounded=0;exitX=1;exitY=0.5;exitDx=0;exitDy=0;entryX=0;entryY=0.5;entryDx=0;entryDy=0;entryPerimeter=0;" edge="1" parent="1" source="FK0lxCe26ej1Pc23t5L4-26" target="FK0lxCe26ej1Pc23t5L4-31">
          <mxGeometry width="50" height="50" relative="1" as="geometry">
            <mxPoint x="885" y="387.5" as="sourcePoint" />
            <mxPoint x="935" y="337.5" as="targetPoint" />
          </mxGeometry>
        </mxCell>
        <mxCell id="FK0lxCe26ej1Pc23t5L4-35" value="&lt;font style=&quot;font-size: 15px;&quot;&gt;Client thread&lt;/font&gt;" style="strokeWidth=2;html=1;shape=mxgraph.flowchart.start_1;whiteSpace=wrap;" vertex="1" parent="1">
          <mxGeometry x="1255" y="290" width="130" height="80" as="geometry" />
        </mxCell>
        <mxCell id="FK0lxCe26ej1Pc23t5L4-38" value="Yes" style="text;html=1;align=center;verticalAlign=middle;whiteSpace=wrap;rounded=0;" vertex="1" parent="1">
          <mxGeometry x="835" y="297.5" width="60" height="30" as="geometry" />
        </mxCell>
        <mxCell id="FK0lxCe26ej1Pc23t5L4-39" value="No" style="text;html=1;align=center;verticalAlign=middle;whiteSpace=wrap;rounded=0;" vertex="1" parent="1">
          <mxGeometry x="835" y="427.5" width="60" height="30" as="geometry" />
        </mxCell>
        <mxCell id="FK0lxCe26ej1Pc23t5L4-40" value="" style="endArrow=classic;html=1;rounded=0;exitX=0.5;exitY=1;exitDx=0;exitDy=0;exitPerimeter=0;" edge="1" parent="1" source="FK0lxCe26ej1Pc23t5L4-31" target="FK0lxCe26ej1Pc23t5L4-89">
          <mxGeometry relative="1" as="geometry">
            <mxPoint x="865" y="387.5" as="sourcePoint" />
            <mxPoint x="827.727272727273" y="477.5" as="targetPoint" />
          </mxGeometry>
        </mxCell>
        <mxCell id="FK0lxCe26ej1Pc23t5L4-41" value="" style="shape=message;html=1;outlineConnect=0;" vertex="1" parent="FK0lxCe26ej1Pc23t5L4-40">
          <mxGeometry width="20" height="14" relative="1" as="geometry">
            <mxPoint x="-10" y="-34" as="offset" />
          </mxGeometry>
        </mxCell>
        <mxCell id="FK0lxCe26ej1Pc23t5L4-43" value="&lt;font style=&quot;font-size: 15px;&quot;&gt;Main&lt;/font&gt;" style="strokeWidth=2;html=1;shape=mxgraph.flowchart.start_1;whiteSpace=wrap;" vertex="1" parent="1">
          <mxGeometry x="185" y="745" width="130" height="80" as="geometry" />
        </mxCell>
        <mxCell id="FK0lxCe26ej1Pc23t5L4-44" value="&lt;font style=&quot;font-size: 15px;&quot;&gt;Main&lt;/font&gt;" style="strokeWidth=2;html=1;shape=mxgraph.flowchart.start_1;whiteSpace=wrap;" vertex="1" parent="1">
          <mxGeometry x="105" y="102.5" width="130" height="80" as="geometry" />
        </mxCell>
        <mxCell id="FK0lxCe26ej1Pc23t5L4-45" value="" style="endArrow=classic;html=1;rounded=0;exitX=1;exitY=0.5;exitDx=0;exitDy=0;exitPerimeter=0;entryX=0;entryY=0.5;entryDx=0;entryDy=0;" edge="1" parent="1" source="FK0lxCe26ej1Pc23t5L4-44" target="FK0lxCe26ej1Pc23t5L4-17">
          <mxGeometry width="50" height="50" relative="1" as="geometry">
            <mxPoint x="285" y="142.5" as="sourcePoint" />
            <mxPoint x="845" y="387.5" as="targetPoint" />
          </mxGeometry>
        </mxCell>
        <mxCell id="FK0lxCe26ej1Pc23t5L4-81" value="&lt;font style=&quot;font-size: 15px;&quot;&gt;network manager thread&lt;/font&gt;" style="strokeWidth=2;html=1;shape=mxgraph.flowchart.start_1;whiteSpace=wrap;" vertex="1" parent="1">
          <mxGeometry x="335" y="555" width="130" height="80" as="geometry" />
        </mxCell>
        <mxCell id="FK0lxCe26ej1Pc23t5L4-83" value="" style="endArrow=classic;html=1;rounded=0;exitX=1;exitY=0.5;exitDx=0;exitDy=0;exitPerimeter=0;" edge="1" parent="1" source="FK0lxCe26ej1Pc23t5L4-81" target="FK0lxCe26ej1Pc23t5L4-18">
          <mxGeometry width="50" height="50" relative="1" as="geometry">
            <mxPoint x="785" y="550" as="sourcePoint" />
            <mxPoint x="835" y="500" as="targetPoint" />
          </mxGeometry>
        </mxCell>
        <mxCell id="FK0lxCe26ej1Pc23t5L4-84" value="" style="shape=flexArrow;endArrow=classic;html=1;rounded=0;exitX=1;exitY=0.5;exitDx=0;exitDy=0;exitPerimeter=0;entryX=0.5;entryY=1;entryDx=0;entryDy=0;entryPerimeter=0;" edge="1" parent="1" source="FK0lxCe26ej1Pc23t5L4-43" target="FK0lxCe26ej1Pc23t5L4-81">
          <mxGeometry width="50" height="50" relative="1" as="geometry">
            <mxPoint x="785" y="550" as="sourcePoint" />
            <mxPoint x="835" y="500" as="targetPoint" />
            <Array as="points">
              <mxPoint x="400" y="785" />
            </Array>
          </mxGeometry>
        </mxCell>
        <mxCell id="FK0lxCe26ej1Pc23t5L4-85" value="" style="endArrow=classic;html=1;rounded=0;exitX=0.5;exitY=0;exitDx=0;exitDy=0;exitPerimeter=0;" edge="1" parent="1" source="FK0lxCe26ej1Pc23t5L4-31" target="FK0lxCe26ej1Pc23t5L4-86">
          <mxGeometry width="50" height="50" relative="1" as="geometry">
            <mxPoint x="785" y="480" as="sourcePoint" />
            <mxPoint x="835" y="430" as="targetPoint" />
          </mxGeometry>
        </mxCell>
        <mxCell id="FK0lxCe26ej1Pc23t5L4-86" value="&lt;span style=&quot;font-size: 15px;&quot;&gt;handle slave accept&lt;/span&gt;" style="rounded=1;whiteSpace=wrap;html=1;absoluteArcSize=1;arcSize=14;strokeWidth=2;" vertex="1" parent="1">
          <mxGeometry x="945" y="300" width="160" height="60" as="geometry" />
        </mxCell>
        <mxCell id="FK0lxCe26ej1Pc23t5L4-88" value="" style="endArrow=classic;html=1;rounded=0;exitX=1;exitY=0.5;exitDx=0;exitDy=0;entryX=0;entryY=0.5;entryDx=0;entryDy=0;" edge="1" parent="1" source="FK0lxCe26ej1Pc23t5L4-18" target="FK0lxCe26ej1Pc23t5L4-89">
          <mxGeometry width="50" height="50" relative="1" as="geometry">
            <mxPoint x="785" y="480" as="sourcePoint" />
            <mxPoint x="835" y="430" as="targetPoint" />
          </mxGeometry>
        </mxCell>
        <mxCell id="FK0lxCe26ej1Pc23t5L4-89" value="wait for responce" style="rounded=1;whiteSpace=wrap;html=1;absoluteArcSize=1;arcSize=14;strokeWidth=2;fontSize=20;" vertex="1" parent="1">
          <mxGeometry x="770" y="555" width="170" height="80" as="geometry" />
        </mxCell>
        <mxCell id="FK0lxCe26ej1Pc23t5L4-90" value="connectionRefused" style="text;html=1;align=center;verticalAlign=middle;whiteSpace=wrap;rounded=0;" vertex="1" parent="1">
          <mxGeometry x="870" y="447.5" width="110" height="32.5" as="geometry" />
        </mxCell>
        <mxCell id="FK0lxCe26ej1Pc23t5L4-91" value="" style="endArrow=classic;html=1;rounded=0;exitX=0.5;exitY=1;exitDx=0;exitDy=0;entryX=0.75;entryY=0;entryDx=0;entryDy=0;" edge="1" parent="1" source="FK0lxCe26ej1Pc23t5L4-86" target="FK0lxCe26ej1Pc23t5L4-89">
          <mxGeometry relative="1" as="geometry">
            <mxPoint x="825" y="480" as="sourcePoint" />
            <mxPoint x="925" y="480" as="targetPoint" />
            <Array as="points">
              <mxPoint x="1025" y="490" />
              <mxPoint x="898" y="490" />
            </Array>
          </mxGeometry>
        </mxCell>
        <mxCell id="FK0lxCe26ej1Pc23t5L4-92" value="" style="shape=message;html=1;outlineConnect=0;" vertex="1" parent="FK0lxCe26ej1Pc23t5L4-91">
          <mxGeometry width="20" height="14" relative="1" as="geometry">
            <mxPoint x="21" y="-32" as="offset" />
          </mxGeometry>
        </mxCell>
        <mxCell id="FK0lxCe26ej1Pc23t5L4-93" value="connectionAccepted" style="text;html=1;align=center;verticalAlign=middle;whiteSpace=wrap;rounded=0;" vertex="1" parent="1">
          <mxGeometry x="1040" y="447.5" width="110" height="32.5" as="geometry" />
        </mxCell>
        <mxCell id="FK0lxCe26ej1Pc23t5L4-104" style="edgeStyle=orthogonalEdgeStyle;rounded=0;orthogonalLoop=1;jettySize=auto;html=1;exitX=0.5;exitY=1;exitDx=0;exitDy=0;exitPerimeter=0;" edge="1" parent="1" source="FK0lxCe26ej1Pc23t5L4-94" target="FK0lxCe26ej1Pc23t5L4-103">
          <mxGeometry relative="1" as="geometry" />
        </mxCell>
        <mxCell id="FK0lxCe26ej1Pc23t5L4-94" value="&lt;font style=&quot;font-size: 14px;&quot;&gt;accepted?&lt;/font&gt;" style="strokeWidth=2;html=1;shape=mxgraph.flowchart.decision;whiteSpace=wrap;" vertex="1" parent="1">
          <mxGeometry x="985" y="545" width="100" height="100" as="geometry" />
        </mxCell>
        <mxCell id="FK0lxCe26ej1Pc23t5L4-98" style="edgeStyle=orthogonalEdgeStyle;rounded=0;orthogonalLoop=1;jettySize=auto;html=1;exitX=1;exitY=0.5;exitDx=0;exitDy=0;entryX=0;entryY=0.5;entryDx=0;entryDy=0;entryPerimeter=0;" edge="1" parent="1" source="FK0lxCe26ej1Pc23t5L4-89" target="FK0lxCe26ej1Pc23t5L4-94">
          <mxGeometry relative="1" as="geometry" />
        </mxCell>
        <mxCell id="FK0lxCe26ej1Pc23t5L4-100" value="accepted" style="text;html=1;align=center;verticalAlign=middle;whiteSpace=wrap;rounded=0;" vertex="1" parent="1">
          <mxGeometry x="1030" y="515" width="60" height="30" as="geometry" />
        </mxCell>
        <mxCell id="FK0lxCe26ej1Pc23t5L4-101" value="refused" style="text;html=1;align=center;verticalAlign=middle;whiteSpace=wrap;rounded=0;" vertex="1" parent="1">
          <mxGeometry x="1045" y="645" width="60" height="30" as="geometry" />
        </mxCell>
        <mxCell id="FK0lxCe26ej1Pc23t5L4-105" style="edgeStyle=orthogonalEdgeStyle;rounded=0;orthogonalLoop=1;jettySize=auto;html=1;exitX=1;exitY=0.5;exitDx=0;exitDy=0;exitPerimeter=0;entryX=0.5;entryY=1;entryDx=0;entryDy=0;" edge="1" parent="1" source="FK0lxCe26ej1Pc23t5L4-103" target="FK0lxCe26ej1Pc23t5L4-18">
          <mxGeometry relative="1" as="geometry" />
        </mxCell>
        <mxCell id="FK0lxCe26ej1Pc23t5L4-103" value="wait" style="strokeWidth=2;html=1;shape=mxgraph.flowchart.delay;whiteSpace=wrap;flipV=1;flipH=1;" vertex="1" parent="1">
          <mxGeometry x="805" y="640" width="85" height="60" as="geometry" />
        </mxCell>
        <mxCell id="FK0lxCe26ej1Pc23t5L4-109" value="" style="shape=flexArrow;endArrow=classic;html=1;rounded=0;exitX=1;exitY=0.5;exitDx=0;exitDy=0;entryX=0;entryY=0.5;entryDx=0;entryDy=0;entryPerimeter=0;" edge="1" parent="1" source="FK0lxCe26ej1Pc23t5L4-86" target="FK0lxCe26ej1Pc23t5L4-35">
          <mxGeometry width="50" height="50" relative="1" as="geometry">
            <mxPoint x="1260" y="320" as="sourcePoint" />
            <mxPoint x="1310" y="270" as="targetPoint" />
          </mxGeometry>
        </mxCell>
      </root>
    </mxGraphModel>
  </diagram>
</mxfile>
